<?xml version="1.0" standalone="no"?>
<!DOCTYPE svg PUBLIC "-//W3C//DTD SVG 20010904//EN"
 "http://www.w3.org/TR/2001/REC-SVG-20010904/DTD/svg10.dtd">
<svg version="1.0" xmlns="http://www.w3.org/2000/svg"
 width="694.000000pt" height="119.000000pt" viewBox="0 0 694.000000 119.000000"
 preserveAspectRatio="xMidYMid meet">

<g transform="translate(0.000000,119.000000) scale(0.100000,-0.100000)"
fill="#000000" stroke="none">
<path d="M1465 1156 c-77 -37 -254 -143 -355 -214 -36 -25 -123 -87 -195 -138
l-130 -92 -130 -6 c-313 -17 -673 -61 -653 -81 3 -3 49 2 104 10 85 12 304 31
573 49 40 3 70 1 65 -4 -5 -4 -63 -50 -129 -101 -230 -178 -585 -487 -585
-509 0 -19 13 -9 103 76 118 111 312 273 508 423 l154 119 135 6 c258 12 290
13 290 8 0 -2 -69 -91 -154 -197 -210 -261 -298 -377 -291 -383 7 -8 6 -10
235 278 269 337 241 310 317 310 l63 0 -92 -117 c-148 -192 -228 -319 -211
-336 3 -4 45 31 94 77 95 90 165 134 194 122 15 -5 17 -15 12 -63 -11 -108 12
-145 78 -123 18 6 76 39 129 74 52 35 92 58 89 52 -4 -6 -29 -39 -56 -74 -27
-35 -47 -66 -44 -69 4 -3 32 18 64 47 94 87 261 185 280 166 4 -3 -24 -50 -60
-104 -37 -53 -63 -98 -59 -100 5 -1 49 27 98 64 182 135 225 147 163 45 -21
-36 -39 -72 -39 -82 0 -45 69 -27 237 62 l112 58 -15 -35 c-37 -89 5 -136 102
-115 55 13 196 77 245 112 31 22 37 15 14 -15 -19 -26 -19 -70 0 -86 21 -18
84 1 152 46 61 40 63 40 63 16 0 -36 35 -55 86 -48 86 11 364 141 364 169 0 5
-3 7 -7 5 -5 -2 -62 -31 -129 -65 -124 -63 -231 -99 -264 -88 -22 7 -33 35
-24 58 3 8 50 52 104 96 117 96 319 296 396 392 175 219 67 246 -141 35 -81
-81 -209 -236 -287 -347 -42 -59 -43 -60 -59 -38 -24 32 -71 19 -171 -47 -132
-89 -292 -165 -358 -171 -72 -7 -89 9 -71 65 19 62 39 77 98 77 43 0 57 5 78
26 18 17 24 31 19 43 -11 28 -76 15 -138 -28 -74 -51 -341 -178 -365 -174 -20
3 -19 7 19 68 46 74 49 107 10 101 -34 -4 -94 -36 -157 -82 -29 -22 -55 -39
-58 -39 -3 0 5 15 18 33 28 37 57 91 57 107 0 30 -125 -14 -230 -81 l-35 -23
25 29 c14 16 31 36 39 44 31 33 -10 19 -74 -25 -105 -74 -217 -134 -247 -134
l-28 0 0 83 c0 86 -4 100 -31 109 -26 10 -108 -35 -174 -93 -59 -53 -59 -52
-9 25 8 14 49 50 91 81 99 75 336 280 394 341 109 115 142 181 101 203 -36 19
-101 -26 -245 -171 l-137 -139 -61 3 -61 3 129 158 c158 196 193 245 193 274
0 34 -51 30 -135 -11z m100 -23 c-10 -15 -86 -112 -168 -214 l-149 -187 -193
-7 c-106 -4 -197 -6 -203 -4 -22 8 497 353 632 420 87 43 112 40 81 -8z m215
-121 c0 -22 -70 -114 -143 -186 -83 -83 -345 -306 -360 -306 -4 0 27 43 69 95
42 52 83 95 91 95 9 0 13 6 10 14 -7 18 187 223 250 265 44 30 83 40 83 23z
m1750 -19 c0 -10 -24 -49 -52 -88 -82 -111 -493 -513 -477 -467 8 23 129 189
200 272 187 223 329 345 329 283z m-566 -518 c15 -23 15 -28 1 -55 -18 -35
-75 -79 -150 -115 -82 -41 -109 -15 -59 57 38 54 145 133 185 137 4 1 14 -10
23 -24z m-414 4 c0 -10 -59 -39 -80 -39 -22 0 -8 22 23 35 39 17 57 19 57 4z"/>
<path d="M4931 1048 c-108 -123 -241 -290 -303 -381 l-40 -58 -101 5 c-56 3
-149 8 -207 11 -57 3 -105 7 -107 8 -8 8 236 295 361 424 44 46 76 86 72 90
-11 11 -211 -200 -340 -358 -60 -74 -115 -140 -122 -147 -7 -9 -43 -16 -95
-19 -107 -6 -210 -27 -243 -48 -31 -21 -33 -44 -9 -146 13 -61 14 -85 5 -146
-10 -61 -45 -170 -87 -266 -4 -9 -3 -17 2 -17 5 0 67 87 138 193 70 105 165
241 209 301 l81 109 208 -6 c115 -3 211 -8 214 -11 3 -2 -11 -31 -30 -63 -51
-83 -115 -219 -133 -280 -16 -55 -16 -154 1 -160 6 -2 10 24 10 65 0 83 30
164 118 318 l62 109 83 -2 c82 -2 112 11 47 22 -19 3 -51 7 -70 11 l-36 5 23
32 c96 137 220 293 363 454 25 28 41 54 36 58 -6 3 -55 -45 -110 -107z m-827
-460 c-4 -7 -28 -40 -52 -72 -25 -32 -92 -127 -150 -210 -57 -83 -102 -142
-99 -131 31 104 34 201 12 285 -21 77 -19 87 15 105 59 30 290 50 274 23z"/>
<path d="M5237 481 c-82 -75 -284 -191 -332 -191 -38 0 -32 35 21 119 48 74
51 99 10 65 -182 -145 -274 -200 -298 -176 -18 18 32 93 86 130 64 43 92 49
127 28 25 -15 29 -15 29 -2 0 20 -31 36 -67 36 -71 0 -208 -122 -201 -178 8
-63 75 -51 193 33 42 30 78 55 80 55 2 0 -5 -20 -16 -45 -26 -59 -18 -85 24
-85 35 0 153 53 220 98 23 16 52 34 64 41 l22 11 -19 -54 c-34 -101 -52 -114
-110 -81 -34 20 -40 19 -40 -8 0 -49 69 -78 108 -45 9 8 40 20 67 26 62 16
180 71 262 123 34 21 65 39 67 39 8 0 -36 -125 -50 -139 -13 -14 -41 -10 -101
15 -20 9 -16 -41 5 -59 22 -20 69 -22 91 -4 9 8 45 21 81 31 36 9 106 39 157
66 79 41 90 45 77 25 -19 -29 -15 -64 8 -78 26 -17 88 7 173 68 42 30 78 55
81 55 2 0 -5 -19 -17 -41 -29 -57 -20 -89 24 -89 33 0 149 52 237 107 l45 28
-47 -67 c-45 -62 -57 -88 -42 -88 4 0 41 31 83 69 88 79 166 131 197 131 23 0
34 -30 34 -97 0 -72 27 -87 111 -58 54 19 252 138 258 156 2 7 -13 2 -35 -12
-153 -94 -269 -147 -298 -136 -9 4 -15 29 -18 76 -2 49 -9 76 -20 88 -16 15
-20 15 -60 0 -24 -9 -67 -35 -97 -58 -29 -22 -55 -39 -57 -37 -1 2 15 25 38
51 22 27 37 51 34 55 -4 3 -13 2 -20 -3 -49 -37 -190 -127 -236 -150 -74 -38
-107 -46 -119 -31 -12 14 15 78 60 141 18 25 29 48 26 51 -4 4 -39 -19 -79
-50 -149 -118 -227 -161 -250 -138 -16 16 33 93 79 125 61 42 97 51 133 34 37
-19 50 -4 15 19 -38 25 -95 11 -176 -42 -123 -80 -318 -168 -335 -152 -7 8 39
141 62 176 8 13 26 27 40 32 13 5 24 14 24 20 0 21 -32 8 -74 -30 -94 -86
-396 -233 -396 -192 0 16 50 145 66 170 9 13 29 28 45 34 16 5 26 14 23 19
-11 18 -35 8 -77 -30z m-118 -237 c2 -2 -7 -4 -22 -4 -14 0 -29 5 -32 10 -6
10 42 4 54 -6z m317 -2 c-10 -2 -22 0 -28 6 -6 6 0 7 19 4 21 -5 23 -7 9 -10z"/>
</g>
</svg>
